<svg xmlns="http://www.w3.org/2000/svg" viewBox="0 0 800 1600" role="img" aria-labelledby="title desc">
  <title id="title">Roadie Labs slick-tire mark</title>
  <desc id="desc">A continuous slick road tire whose pattern of shallow sipes forms an R and an L.</desc>
  <defs>
    <mask id="rl-slick-grooves">
      <rect width="800" height="1600" fill="white"/>
      <path d="M400 188V1412" fill="none" stroke="black" stroke-width="10" stroke-linecap="round"/>
      <g fill="none" stroke="black" stroke-width="20" stroke-linecap="round">
        <path d="M270 380 300 390M310 380 340 390M350 380 380 390M270 470 300 480M350 470 380 480M270 560 300 570M350 560 380 570M270 650 300 660M310 650 340 660M350 650 380 660M270 740 300 750M310 740 340 750M270 830 300 840M350 830 380 840M270 920 300 930M350 920 380 930M270 1010 300 1020M350 1010 380 1020M270 1100 300 1110M350 1100 380 1110M270 1190 300 1200M350 1190 380 1200"/>
        <path d="M420 390 450 380M420 480 450 470M420 570 450 560M420 660 450 650M420 750 450 740M420 840 450 830M420 930 450 920M420 1020 450 1010M420 1110 450 1100M420 1200 450 1190M460 1200 490 1190M500 1200 530 1190"/>
      </g>
    </mask>
  </defs>
  <path fill="#1a1a1a" mask="url(#rl-slick-grooves)"
        d="M400 24C490 24 535 140 552 320 570 520 570 1080 552 1280 535 1460 490 1576 400 1576S265 1460 248 1280C230 1080 230 520 248 320 265 140 310 24 400 24Z"/>
</svg>
