<svg xmlns="http://www.w3.org/2000/svg" viewBox="0 0 800 1200" role="img" aria-labelledby="title desc">
  <title id="title">Roadie Labs slick-tire mark</title>
  <desc id="desc">A continuous slick road tire with shallow R and L monogram grooves.</desc>
  <defs>
    <mask id="rl-slick-grooves">
      <rect width="800" height="1200" fill="white"/>
      <g fill="none" stroke="black" stroke-width="16" stroke-linecap="round">
        <path d="M206 220 274 264M184 328 258 372M174 450 250 492M174 750 250 708M184 872 258 828M206 980 274 936"/>
        <path d="M594 220 526 264M616 328 542 372M626 450 550 492M626 750 550 708M616 872 542 828M594 980 526 936"/>
      </g>
      <g fill="none" stroke="black" stroke-width="23" stroke-linecap="round" stroke-linejoin="round">
        <path d="M278 302 278 886"/>
        <path d="M278 316H326C382 316 402 354 402 405 402 456 378 492 326 492H278"/>
        <path d="M328 492 410 886"/>
        <path d="M476 302 476 886 580 848"/>
      </g>
      <g fill="none" stroke="black" stroke-width="11" stroke-linecap="round">
        <path d="M306 608 354 582M318 682 367 656M330 756 380 730"/>
        <path d="M505 438 548 416M505 534 552 510M505 630 556 604M505 726 560 698"/>
      </g>
    </mask>
  </defs>
  <path fill="#1a1a1a" mask="url(#rl-slick-grooves)"
        d="M400 30C510 30 572 101 602 226 631 347 635 853 602 974 568 1099 510 1170 400 1170S232 1099 198 974C165 853 169 347 198 226 228 101 290 30 400 30Z"/>
</svg>
